<?xml version="1.0" encoding="utf-8"?>
<svg width="24px" height="24px" viewBox="0 0 24 24" version="1.1" xmlns:xlink="http://www.w3.org/1999/xlink" xmlns="http://www.w3.org/2000/svg">
  <defs>
    <path d="M24 0L24 0L24 24L0 24L0 0L24 0Z" id="path_1" />
    <clipPath id="clip_1">
      <use xlink:href="#path_1" clip-rule="evenodd" fill-rule="evenodd" />
    </clipPath>
  </defs>
  <g id="Frame">
    <path d="M24 0L24 0L24 24L0 24L0 0L24 0Z" id="Frame" fill="none" stroke="none" />
    <path d="M0 0L24 0L24 24L0 24L0 0Z" id="Shape" fill="none" stroke="none" clip-path="url(#clip_1)" />
    <path d="M17.5882 16.8087Q17.8512 16.6174 17.9514 16.308Q18.4138 14.8794 19.4809 14.2008Q20.5101 13.5462 21.6756 13.9459C21.801 13.9889 21.9299 14.0063 22.0623 13.9981C22.1946 13.9898 22.3204 13.9565 22.4395 13.8982C22.5586 13.84 22.662 13.7611 22.7498 13.6617C22.8375 13.5623 22.9029 13.4498 22.9459 13.3244C22.9675 13.2616 22.9826 13.1973 22.9913 13.1315C23 13.0657 23.0022 12.9997 22.9978 12.9335C22.9796 12.6601 22.9602 12.2427 22.9398 11.6811Q22.7664 6.90617 20.7162 4.80213C20.5235 4.60435 20.2891 4.50367 20.013 4.50008C19.7369 4.4965 19.4999 4.59107 19.3021 4.78378Q19.2617 4.82316 19.226 4.86685Q19.1902 4.91053 19.1596 4.95796C18.4019 6.13267 17.3487 6.8022 16 6.96655L16 4C16 3.72386 15.9024 3.48816 15.7071 3.29289C15.5118 3.09763 15.2761 3 15 3C14.9013 3 14.8047 3.0143 14.7102 3.04291C14.6157 3.07151 14.5274 3.11319 14.4453 3.16795L12 4.79815L9.5547 3.16795C9.44436 3.09439 9.32415 3.04475 9.19406 3.01901C9.06398 2.99328 8.93392 2.99341 8.80388 3.01942C8.67385 3.04543 8.55374 3.09532 8.44356 3.16911Q8.27829 3.27979 8.16795 3.4453C8.11319 3.52743 8.07151 3.61574 8.04291 3.71022C8.0143 3.80469 8 3.90129 8 4L8 6.96655C6.65127 6.8022 5.59806 6.13267 4.84035 4.95796C4.69067 4.7259 4.48087 4.58075 4.21094 4.5225Q3.80604 4.43513 3.45796 4.65965C3.42634 4.68004 3.39597 4.70215 3.36685 4.72597Q3.32316 4.76171 3.28378 4.80213Q1.23363 6.90618 1.06015 11.6811C1.03975 12.2427 1.02044 12.6601 1.00221 12.9335Q0.974662 13.3468 1.24742 13.6585C1.42926 13.8663 1.65795 13.9794 1.93348 13.9978C1.99971 14.0022 2.06572 14 2.13152 13.9913C2.19731 13.9826 2.26161 13.9675 2.32439 13.9459C3.10138 13.6795 3.83295 13.7644 4.51911 14.2008Q5.58617 14.8794 6.04861 16.308Q6.14877 16.6174 6.41177 16.8087Q6.67478 17 7 17C8.89476 17 10.2482 18.1142 11.0605 20.3425C11.1059 20.4671 11.1734 20.5782 11.263 20.6759C11.3527 20.7737 11.4576 20.8505 11.5778 20.9065C11.698 20.9625 11.8244 20.9933 11.9568 20.9991C12.0893 21.0048 12.2179 20.9849 12.3425 20.9395C12.4812 20.889 12.6027 20.8115 12.7071 20.7071C12.8115 20.6027 12.889 20.4812 12.9395 20.3425Q14.1579 17 17 17C17.2168 17 17.4129 16.9362 17.5882 16.8087Z" id="Vector" fill="#FFFFFF" fill-rule="evenodd" stroke="none" clip-path="url(#clip_1)" />
    <path d="M9 8C9 9.65685 10.3431 11 12 11C13.6569 11 15 9.65685 15 8" id="Shape" fill="none" stroke="#FFFFFF" stroke-width="2" stroke-linecap="round" stroke-linejoin="round" clip-path="url(#clip_1)" />
  </g>
</svg>