<?xml version="1.0" encoding="utf-8"?>
<svg width="24px" height="24px" viewBox="0 0 24 24" version="1.1" xmlns:xlink="http://www.w3.org/1999/xlink" xmlns="http://www.w3.org/2000/svg">
  <defs>
    <path d="M24 0L24 0L24 24L0 24L0 0L24 0Z" id="path_1" />
    <clipPath id="clip_1">
      <use xlink:href="#path_1" clip-rule="evenodd" fill-rule="evenodd" />
    </clipPath>
  </defs>
  <g id="Frame">
    <path d="M24 0L24 0L24 24L0 24L0 0L24 0Z" id="Frame" fill="none" stroke="none" />
    <path d="M20.7073 8.74705L8.5853 20.871C6.76731 22.6895 4.49446 22.2352 3.13062 20.8717C1.76678 19.5082 1.31193 17.2354 3.12994 15.417L15.252 3.29295C15.3457 3.19918 15.4539 3.12691 15.5764 3.07615C15.6989 3.0254 15.8264 3.00001 15.959 3C16.0917 2.99999 16.2192 3.02535 16.3417 3.07609C16.4643 3.12683 16.5724 3.19907 16.6662 3.29283C16.8615 3.48808 16.9591 3.72376 16.9591 3.9999C16.9592 4.27603 16.8616 4.51174 16.6663 4.70702L16.6663 4.70705L4.54433 16.831C4.18176 17.1937 4.0005 17.6314 4.00057 18.1442C4.00063 18.657 4.18199 19.0947 4.54465 19.4573C4.90731 19.8199 5.34505 20.0011 5.85786 20.0011C6.37068 20.001 6.80838 19.8196 7.17097 19.457L19.2929 7.33298L19.293 7.33295C19.3867 7.23918 19.4949 7.16691 19.6174 7.11615C19.7399 7.06539 19.8674 7.04001 20 7.04C20.1327 7.03999 20.2602 7.06535 20.3827 7.11609C20.5053 7.16682 20.6134 7.23907 20.7072 7.33283C20.9025 7.52808 21.0001 7.76377 21.0001 8.03992C21.0002 8.31606 20.9025 8.55177 20.7073 8.74705L20.7073 8.74705Z" id="Path" fill="#FFFFFF" fill-rule="evenodd" stroke="none" clip-path="url(#clip_1)" />
    <path d="M6.00003 20L3.50002 18L7.00003 13L15 13L6.00003 20Z" id="Path" fill="#FFFFFF" fill-rule="evenodd" stroke="none" clip-path="url(#clip_1)" />
    <path d="M5.37534 20.7809L2.87534 18.7809C2.66941 18.6161 2.54769 18.4032 2.5102 18.1422C2.4727 17.8811 2.52957 17.6426 2.68081 17.4265C2.68081 17.4265 6.83688 12 7.00004 12L15 12C15.2762 12 15.5119 12.0976 15.7071 12.2929C15.9024 12.4882 6.61398 20.7894 6.61398 20.7894C6.43141 20.9314 6.22448 21.0016 5.99319 21C5.7619 20.9984 5.55595 20.9254 5.37534 20.7809L5.37534 20.7809Z" id="Path" fill="#FFFFFF" fill-rule="evenodd" stroke="none" clip-path="url(#clip_1)" />
    <path d="M19 15L20.5 16.6C21.2091 17.4041 21.1581 18.6242 20.3844 19.3663C19.6107 20.1084 18.3894 20.1084 17.6157 19.3663C16.8419 18.6242 16.7909 17.4041 17.5 16.6L19 15L19 15Z" id="Path" fill="#FFFFFF" stroke="none" clip-path="url(#clip_1)" />
    <path d="M19.7295 14.3161L21.2295 15.9161C21.233 15.9198 21.2364 15.9235 21.2398 15.9272C21.2432 15.931 21.2466 15.9348 21.25 15.9386C22.5187 17.3772 22.1582 19.0507 21.0765 20.088C19.9949 21.1254 18.0051 21.1254 16.9234 20.088C15.8418 19.0507 15.4812 17.3772 16.75 15.9386C16.7533 15.9348 16.7567 15.931 16.7601 15.9272C16.7635 15.9235 16.767 15.9198 16.7704 15.9161L18.2704 14.3161C18.3611 14.2193 18.4669 14.1436 18.5877 14.0889C18.7085 14.0343 18.8352 14.0048 18.9677 14.0005C19.1003 13.9963 19.2286 14.0175 19.3527 14.0643C19.4767 14.111 19.5872 14.1798 19.6839 14.2705C19.6917 14.2778 19.6995 14.2853 19.7071 14.2929C19.7147 14.3005 19.7222 14.3082 19.7295 14.3161L19.7295 14.3161ZM18.241 17.2717L19 16.4621L19.7589 17.2717C20.1726 17.7476 20.1503 18.2052 19.6922 18.6446C19.2307 19.0872 18.7692 19.0872 18.3078 18.6446C17.8496 18.2052 17.8274 17.7476 18.241 17.2717L18.241 17.2717Z" id="Shape" fill="#FFFFFF" fill-rule="evenodd" stroke="none" clip-path="url(#clip_1)" />
    <path d="M21.7071 8.2929L15.7071 2.2929C15.6134 2.19913 15.5052 2.12687 15.3827 2.07613C15.2602 2.02538 15.1326 2.00001 15 2.00001C14.8674 2.00001 14.7399 2.02538 14.6173 2.07613C14.4948 2.12687 14.3867 2.19913 14.2929 2.2929C14.0977 2.48816 14 2.72386 14 3.00001C14 3.27615 14.0977 3.51185 14.2929 3.70711L20.2929 9.70711C20.4882 9.90238 20.7239 10 21 10C21.2762 10 21.5119 9.90238 21.7071 9.70711C21.8009 9.61335 21.8732 9.5052 21.9239 9.38269C21.9747 9.26018 22 9.13261 22 9.00001C22 8.8674 21.9747 8.73984 21.9239 8.61732C21.8732 8.49481 21.8009 8.38667 21.7071 8.2929L21.7071 8.2929Z" id="Path" fill="#FFFFFF" fill-rule="evenodd" stroke="none" clip-path="url(#clip_1)" />
  </g>
</svg>