<?xml version="1.0" encoding="utf-8"?>
<svg width="562px" height="562px" viewBox="0 0 562 562" version="1.1" xmlns:xlink="http://www.w3.org/1999/xlink" xmlns="http://www.w3.org/2000/svg">
  <defs>
    <path d="M562 0L562 0L562 562L0 562L0 0L562 0Z" id="path_1" />
    <clipPath id="clip_1">
      <use xlink:href="#path_1" clip-rule="evenodd" fill-rule="evenodd" />
    </clipPath>
  </defs>
  <g id="openprofile_logo_">
    <path d="M562 0L562 0L562 562L0 562L0 0L562 0Z" id="openprofile_logo_" fill="none" stroke="none" />
    <path d="M405.983 348.977L405.983 420.04Q405.983 420.81 405.946 421.58Q405.909 422.35 405.835 423.118Q405.761 423.885 405.65 424.648Q405.539 425.411 405.391 426.167Q405.243 426.924 405.06 427.673Q404.876 428.421 404.656 429.16Q404.436 429.899 404.181 430.627Q403.926 431.354 403.637 432.068Q403.347 432.783 403.023 433.482Q402.699 434.182 402.342 434.865Q401.985 435.548 401.595 436.213Q401.206 436.878 400.784 437.524Q400.363 438.17 399.911 438.794Q399.46 439.419 398.978 440.021Q398.497 440.623 397.987 441.201Q397.477 441.78 396.94 442.333L303.656 538.394Q303.099 538.968 302.513 539.513Q301.928 540.059 301.316 540.574Q300.704 541.09 300.067 541.574Q299.43 542.059 298.769 542.51Q298.109 542.962 297.426 543.38Q296.744 543.799 296.042 544.182Q295.34 544.566 294.619 544.914Q293.899 545.262 293.162 545.574Q292.425 545.886 291.673 546.16Q290.921 546.435 290.157 546.671Q289.392 546.908 288.617 547.106Q287.842 547.304 287.057 547.463Q286.273 547.622 285.482 547.741Q284.69 547.861 283.894 547.941Q283.098 548.021 282.299 548.061Q281.5 548.1 280.699 548.101Q279.899 548.1 279.1 548.061Q278.301 548.021 277.504 547.941Q276.708 547.861 275.917 547.741Q275.126 547.622 274.341 547.463Q273.557 547.304 272.782 547.106Q272.006 546.908 271.242 546.671Q270.477 546.435 269.726 546.16Q268.974 545.886 268.237 545.574Q267.5 545.262 266.779 544.914Q266.059 544.566 265.357 544.182Q264.654 543.799 263.972 543.38Q263.29 542.962 262.63 542.51Q261.969 542.058 261.332 541.574Q260.695 541.09 260.083 540.574Q259.471 540.059 258.885 539.513Q258.3 538.968 257.743 538.394L164.458 442.333Q163.921 441.78 163.412 441.201Q162.902 440.623 162.42 440.021Q161.939 439.419 161.487 438.794Q161.035 438.17 160.614 437.524Q160.193 436.878 159.803 436.213Q159.414 435.548 159.057 434.865Q158.7 434.182 158.376 433.482Q158.052 432.783 157.762 432.068Q157.472 431.354 157.217 430.626Q156.962 429.899 156.743 429.16Q156.523 428.421 156.339 427.672Q156.155 426.924 156.007 426.167Q155.86 425.411 155.749 424.648Q155.638 423.885 155.564 423.118Q155.489 422.35 155.452 421.58Q155.415 420.81 155.415 420.039L155.415 348.977Q155.415 348.192 155.454 347.407Q155.492 346.622 155.569 345.841Q155.646 345.059 155.762 344.282Q155.877 343.505 156.03 342.734Q156.183 341.964 156.374 341.202Q156.565 340.44 156.793 339.688Q157.021 338.936 157.286 338.197Q157.55 337.457 157.851 336.731Q158.152 336.006 158.488 335.295Q158.823 334.585 159.194 333.893Q159.564 333.2 159.968 332.526Q160.372 331.852 160.808 331.199Q161.245 330.546 161.713 329.915Q162.181 329.284 162.679 328.677Q163.177 328.069 163.705 327.487Q164.232 326.905 164.788 326.35Q165.343 325.794 165.925 325.267Q166.507 324.739 167.115 324.241Q167.722 323.743 168.353 323.275Q168.984 322.807 169.637 322.37Q170.29 321.934 170.964 321.53Q171.638 321.126 172.331 320.756Q173.023 320.385 173.733 320.05Q174.444 319.714 175.169 319.413Q175.895 319.112 176.635 318.848Q177.374 318.583 178.126 318.355Q178.878 318.127 179.64 317.936Q180.402 317.745 181.172 317.592Q181.943 317.439 182.72 317.324Q183.497 317.208 184.279 317.131Q185.06 317.054 185.845 317.016Q186.63 316.977 187.415 316.977L373.983 316.977Q374.769 316.977 375.554 317.016Q376.338 317.054 377.12 317.131Q377.902 317.208 378.679 317.324Q379.456 317.439 380.226 317.592Q380.997 317.745 381.759 317.936Q382.521 318.127 383.272 318.355Q384.024 318.583 384.764 318.848Q385.503 319.112 386.229 319.413Q386.955 319.714 387.665 320.05Q388.375 320.385 389.068 320.756Q389.761 321.126 390.435 321.53Q391.108 321.934 391.762 322.37Q392.415 322.807 393.046 323.275Q393.677 323.743 394.284 324.241Q394.891 324.739 395.473 325.267Q396.055 325.794 396.611 326.35Q397.166 326.905 397.694 327.487Q398.221 328.069 398.72 328.677Q399.218 329.284 399.686 329.915Q400.154 330.546 400.59 331.199Q401.027 331.852 401.431 332.526Q401.835 333.2 402.205 333.893Q402.575 334.585 402.911 335.295Q403.247 336.006 403.547 336.731Q403.848 337.457 404.113 338.197Q404.377 338.936 404.605 339.688Q404.833 340.44 405.024 341.202Q405.215 341.964 405.368 342.734Q405.522 343.505 405.637 344.282Q405.752 345.059 405.829 345.841Q405.906 346.622 405.945 347.407Q405.983 348.192 405.983 348.977Z" id="Path-1" fill="#FFFFFF" fill-rule="evenodd" stroke="none" clip-path="url(#clip_1)" />
    <path d="M94.8753 310.877L94.8753 333.774Q94.8753 334.314 94.8354 334.852Q94.7955 335.389 94.7158 335.923Q94.6362 336.456 94.5173 336.983Q94.3984 337.509 94.2408 338.025Q94.0833 338.541 93.888 339.043Q93.6927 339.546 93.4608 340.033Q93.2288 340.52 92.9614 340.989Q92.694 341.457 92.3927 341.905Q92.0914 342.352 91.7577 342.776Q91.4241 343.2 91.06 343.598Q90.696 343.996 90.3034 344.366Q89.9109 344.736 89.492 345.076Q89.0732 345.416 88.6303 345.724Q88.1874 346.032 87.723 346.306Q87.2585 346.58 86.7751 346.819Q86.2916 347.059 85.7917 347.261Q85.2919 347.464 84.7784 347.629Q84.2649 347.795 83.7405 347.921Q83.2162 348.048 82.684 348.136Q82.1517 348.223 81.6144 348.271Q81.0771 348.319 80.5378 348.327Q79.9984 348.335 79.4599 348.303Q78.9215 348.271 78.3868 348.2Q77.8522 348.128 77.3243 348.017Q76.7965 347.906 76.2783 347.756Q75.7601 347.606 75.2544 347.419Q74.7487 347.231 74.2583 347.006Q73.7679 346.781 73.2955 346.521Q72.823 346.261 72.3712 345.966Q71.9193 345.672 71.4905 345.344Q71.0617 345.017 70.6583 344.659Q70.2549 344.301 69.8791 343.914L9.04321 281.267Q8.50616 280.714 7.99637 280.136Q7.48658 279.557 7.00522 278.955Q6.52386 278.353 6.07206 277.729Q5.62026 277.104 5.19905 276.458Q4.77785 275.813 4.38822 275.148Q3.99859 274.482 3.64145 273.799Q3.2843 273.116 2.96047 272.416Q2.63663 271.717 2.34686 271.003Q2.05709 270.288 1.80205 269.561Q1.547 268.833 1.32729 268.094Q1.10757 267.355 0.923694 266.607Q0.739813 265.858 0.592195 265.102Q0.444576 264.345 0.333561 263.582Q0.222546 262.819 0.148393 262.052Q0.0742394 261.285 0.0371197 260.515Q0 259.745 0 258.974L0 236.076Q0 235.537 0.0399288 234.999Q0.0798575 234.461 0.159496 233.927Q0.239134 233.394 0.358046 232.868Q0.476957 232.342 0.634488 231.826Q0.79202 231.31 0.987307 230.807Q1.18259 230.304 1.41457 229.817Q1.64654 229.33 1.91392 228.862Q2.18131 228.393 2.48263 227.946Q2.78396 227.498 3.11758 227.074Q3.4512 226.651 3.81528 226.253Q4.17936 225.855 4.57191 225.485Q4.96445 225.115 5.3833 224.775Q5.80216 224.435 6.24502 224.127Q6.68789 223.819 7.15233 223.544Q7.61678 223.27 8.10026 223.031Q8.58374 222.792 9.0836 222.589Q9.58346 222.386 10.097 222.221Q10.6105 222.056 11.1348 221.929Q11.6591 221.802 12.1913 221.715Q12.7236 221.627 13.2609 221.579Q13.7982 221.531 14.3375 221.523Q14.8769 221.515 15.4154 221.547Q15.9539 221.579 16.4885 221.651Q17.0231 221.722 17.551 221.833Q18.0789 221.944 18.5971 222.094Q19.1153 222.244 19.6209 222.432Q20.1266 222.619 20.617 222.844Q21.1074 223.069 21.5799 223.329Q22.0523 223.59 22.5041 223.884Q22.956 224.179 23.3848 224.506Q23.8136 224.833 24.217 225.191Q24.6204 225.549 24.9962 225.936L85.8321 288.583Q86.3692 289.136 86.879 289.715Q87.3887 290.293 87.8701 290.895Q88.3515 291.497 88.8033 292.122Q89.2551 292.746 89.6763 293.392Q90.0975 294.038 90.4871 294.703Q90.8767 295.368 91.2339 296.051Q91.591 296.734 91.9148 297.434Q92.2387 298.133 92.5285 298.848Q92.8182 299.562 93.0733 300.29Q93.3283 301.017 93.548 301.756Q93.7677 302.495 93.9516 303.243Q94.1355 303.992 94.2831 304.749Q94.4307 305.505 94.5418 306.268Q94.6528 307.031 94.7269 307.798Q94.8011 308.566 94.8382 309.336Q94.8753 310.106 94.8753 310.877L94.8753 310.877Z" id="Path-1" fill="#FFFFFF" fill-rule="evenodd" stroke="none" clip-path="url(#clip_1)" />
    <path d="M476.167 288.584L537.003 225.936Q537.379 225.549 537.783 225.191Q538.186 224.833 538.615 224.506Q539.044 224.179 539.496 223.884Q539.947 223.59 540.42 223.329Q540.892 223.069 541.383 222.844Q541.873 222.619 542.379 222.432Q542.884 222.244 543.403 222.094Q543.921 221.944 544.449 221.833Q544.977 221.722 545.511 221.651Q546.046 221.579 546.584 221.547Q547.123 221.515 547.662 221.523Q548.202 221.531 548.739 221.579Q549.276 221.627 549.808 221.715Q550.341 221.802 550.865 221.929Q551.389 222.056 551.903 222.221Q552.416 222.386 552.916 222.589Q553.416 222.792 553.899 223.031Q554.383 223.27 554.847 223.544Q555.312 223.819 555.755 224.127Q556.198 224.435 556.616 224.775Q557.035 225.115 557.428 225.485Q557.82 225.855 558.184 226.253Q558.548 226.651 558.882 227.074Q559.216 227.498 559.517 227.946Q559.818 228.393 560.086 228.862Q560.353 229.33 560.585 229.817Q560.817 230.304 561.012 230.807Q561.208 231.31 561.365 231.826Q561.523 232.342 561.642 232.868Q561.76 233.394 561.84 233.927Q561.92 234.461 561.96 234.999Q562 235.537 562 236.076L562 258.974Q562 259.745 561.963 260.515Q561.925 261.285 561.851 262.052Q561.777 262.819 561.666 263.582Q561.555 264.345 561.407 265.102Q561.26 265.858 561.076 266.607Q560.892 267.356 560.672 268.095Q560.453 268.833 560.198 269.561Q559.943 270.288 559.653 271.003Q559.363 271.717 559.039 272.417Q558.715 273.116 558.358 273.799Q558.001 274.483 557.612 275.148Q557.222 275.813 556.801 276.459Q556.379 277.104 555.928 277.729Q555.476 278.353 554.995 278.956Q554.513 279.558 554.003 280.136Q553.493 280.714 552.956 281.267L492.12 343.914Q491.745 344.301 491.341 344.659Q490.938 345.017 490.509 345.345Q490.08 345.672 489.628 345.967Q489.176 346.261 488.704 346.522Q488.232 346.782 487.741 347.007Q487.251 347.231 486.745 347.419Q486.239 347.607 485.721 347.757Q485.203 347.906 484.675 348.017Q484.147 348.129 483.613 348.2Q483.078 348.272 482.539 348.304Q482.001 348.336 481.462 348.328Q480.922 348.32 480.385 348.272Q479.848 348.224 479.315 348.136Q478.783 348.048 478.259 347.922Q477.735 347.795 477.221 347.63Q476.708 347.465 476.208 347.262Q475.708 347.059 475.224 346.82Q474.741 346.581 474.276 346.306Q473.812 346.032 473.369 345.724Q472.926 345.416 472.507 345.076Q472.089 344.736 471.696 344.366Q471.303 343.996 470.939 343.598Q470.575 343.2 470.242 342.776Q469.908 342.352 469.607 341.905Q469.305 341.458 469.038 340.989Q468.771 340.521 468.539 340.034Q468.307 339.547 468.111 339.044Q467.916 338.541 467.759 338.025Q467.601 337.509 467.482 336.983Q467.363 336.457 467.284 335.923Q467.204 335.39 467.164 334.852Q467.124 334.314 467.124 333.775L467.124 310.877Q467.124 310.106 467.161 309.336Q467.198 308.566 467.272 307.799Q467.347 307.031 467.458 306.268Q467.569 305.506 467.716 304.749Q467.864 303.992 468.048 303.244Q468.232 302.495 468.451 301.756Q468.671 301.017 468.926 300.29Q469.181 299.562 469.471 298.848Q469.761 298.134 470.085 297.434Q470.408 296.735 470.766 296.051Q471.123 295.368 471.512 294.703Q471.902 294.038 472.323 293.392Q472.744 292.747 473.196 292.122Q473.648 291.497 474.129 290.895Q474.611 290.293 475.12 289.715Q475.63 289.137 476.167 288.584L476.167 288.584Z" id="Path-1" fill="#FFFFFF" fill-rule="evenodd" stroke="none" clip-path="url(#clip_1)" />
    <path d="M51.167 164.886L128.6 244.624Q129.158 245.198 129.743 245.744Q130.329 246.289 130.941 246.805Q131.553 247.32 132.19 247.805Q132.827 248.289 133.487 248.741Q134.148 249.193 134.83 249.611Q135.512 250.029 136.215 250.413Q136.917 250.797 137.637 251.145Q138.358 251.493 139.095 251.805Q139.832 252.116 140.584 252.391Q141.335 252.665 142.1 252.902Q142.864 253.138 143.64 253.336Q144.415 253.534 145.199 253.693Q145.984 253.852 146.775 253.972Q147.566 254.091 148.362 254.171Q149.159 254.251 149.958 254.291Q150.757 254.331 151.557 254.331L410.69 254.331Q411.491 254.331 412.29 254.291Q413.089 254.251 413.885 254.171Q414.682 254.091 415.473 253.972Q416.264 253.852 417.048 253.693Q417.833 253.534 418.608 253.336Q419.383 253.138 420.148 252.902Q420.912 252.665 421.664 252.391Q422.416 252.116 423.153 251.805Q423.89 251.493 424.61 251.145Q425.331 250.797 426.033 250.413Q426.735 250.029 427.418 249.611Q428.1 249.193 428.76 248.741Q429.421 248.289 430.058 247.805Q430.695 247.32 431.307 246.805Q431.919 246.289 432.504 245.744Q433.09 245.198 433.647 244.624L511.105 164.861Q511.755 164.191 512.365 163.485Q512.975 162.779 513.543 162.038Q514.111 161.298 514.634 160.526Q515.158 159.753 515.636 158.952Q516.113 158.15 516.544 157.322Q516.974 156.494 517.355 155.643Q517.736 154.791 518.067 153.919Q518.398 153.046 518.678 152.156Q518.958 151.266 519.185 150.361Q519.412 149.456 519.586 148.539Q519.76 147.622 519.881 146.697Q520.001 145.772 520.067 144.841Q520.134 143.91 520.146 142.977Q520.158 142.044 520.115 141.112Q520.073 140.18 519.976 139.252Q519.879 138.324 519.729 137.403Q519.578 136.482 519.374 135.572Q519.17 134.661 518.914 133.764Q518.657 132.867 518.348 131.986Q518.04 131.106 517.68 130.245Q517.321 129.383 516.912 128.545Q516.503 127.706 516.046 126.892Q515.589 126.079 515.086 125.294Q514.582 124.508 514.033 123.753Q513.485 122.999 512.893 122.277Q512.301 121.555 511.669 120.87Q511.036 120.184 510.365 119.536Q509.693 118.888 508.985 118.281Q508.277 117.673 507.534 117.108Q506.792 116.542 506.018 116.021Q505.244 115.5 504.441 115.025Q503.637 114.55 502.808 114.123L296.018 7.54804Q295.172 7.11226 294.302 6.72747Q293.432 6.34269 292.541 6.01026Q291.65 5.67783 290.74 5.39893Q289.831 5.12003 288.907 4.89564Q287.982 4.67125 287.046 4.50217Q286.11 4.33309 285.165 4.21991Q284.221 4.10674 283.271 4.04986Q282.322 3.99299 281.371 3.99262Q280.419 3.99225 279.47 4.04839Q278.52 4.10452 277.576 4.21696Q276.631 4.32941 275.695 4.49776Q274.759 4.66611 273.834 4.88978Q272.909 5.11345 272 5.39164Q271.09 5.66984 270.199 6.00157Q269.307 6.33331 268.437 6.71742Q267.567 7.10153 266.721 7.53665L59.4862 114.137Q58.6561 114.564 57.8523 115.038Q57.0486 115.513 56.2738 116.034Q55.499 116.554 54.7559 117.119Q54.0129 117.684 53.304 118.292Q52.5951 118.899 51.9228 119.547Q51.2505 120.194 50.6171 120.88Q49.9837 121.566 49.3914 122.287Q48.7991 123.009 48.2498 123.763Q47.7005 124.518 47.1962 125.304Q46.6919 126.089 46.2342 126.903Q45.7765 127.716 45.367 128.555Q44.9575 129.394 44.5976 130.255Q44.2377 131.117 43.9287 131.998Q43.6196 132.878 43.3624 133.776Q43.1052 134.673 42.9007 135.584Q42.6963 136.495 42.5453 137.416Q42.3943 138.337 42.2972 139.266Q42.2002 140.194 42.1574 141.126Q42.1146 142.059 42.1263 142.992Q42.138 143.926 42.204 144.857Q42.2701 145.788 42.3903 146.714Q42.5105 147.639 42.6845 148.557Q42.8585 149.474 43.0856 150.379Q43.3128 151.285 43.5923 152.175Q43.8718 153.066 44.2028 153.939Q44.5338 154.812 44.9151 155.664Q45.2964 156.516 45.7267 157.344Q46.157 158.172 46.6349 158.974Q47.1128 159.776 47.6366 160.549Q48.1604 161.322 48.7284 162.062Q49.2963 162.803 49.9065 163.51Q50.5167 164.216 51.167 164.886L51.167 164.886Z" id="Path-1" fill="#FFFFFF" fill-rule="evenodd" stroke="none" clip-path="url(#clip_1)" />
  </g>
</svg>