<?xml version="1.0" encoding="utf-8"?>
<svg width="24px" height="24px" viewBox="0 0 24 24" version="1.1" xmlns:xlink="http://www.w3.org/1999/xlink" xmlns="http://www.w3.org/2000/svg">
  <defs>
    <path d="M24 0L24 0L24 24L0 24L0 0L24 0Z" id="path_1" />
    <clipPath id="clip_1">
      <use xlink:href="#path_1" clip-rule="evenodd" fill-rule="evenodd" />
    </clipPath>
  </defs>
  <g id="pencil">
    <path d="M24 0L24 0L24 24L0 24L0 0L24 0Z" id="pencil" fill="none" stroke="none" />
    <path d="M0 0L24 0L24 24L0 24L0 0Z" id="Shape" fill="none" stroke="none" clip-path="url(#clip_1)" />
    <path d="M8 21L4.01795 21C4.01493 21.0001 4.01191 21.0001 4.00889 21.0001C4.00587 21.0002 4.00286 21.0002 3.99984 21.0002C3.72369 21.0002 3.48799 20.9025 3.29273 20.7073C3.09747 20.512 2.99984 20.2763 2.99984 20.0002L2.99984 16.0002C2.99984 15.8676 3.02521 15.74 3.07596 15.6175C3.1267 15.495 3.19896 15.3868 3.29273 15.2931L13.7924 4.79336C14.8343 3.75064 16.0671 3.41991 17.4909 3.80117C18.9148 4.18242 19.8174 5.08496 20.1988 6.50876C20.5801 7.93257 20.2496 9.16535 19.2071 10.2071L8.70711 20.7071C8.61334 20.8009 8.5052 20.8731 8.38268 20.9239C8.26017 20.9746 8.13261 21 8 21L8 21ZM7.58579 19L4.99984 19L4.99984 16.4144L15.2072 6.20697C15.7048 5.70897 16.2936 5.55102 16.9736 5.7331C17.6536 5.91519 18.0847 6.34623 18.2669 7.02623C18.449 7.70623 18.291 8.29512 17.7929 8.79289L7.58579 19L7.58579 19Z" id="Vector" fill="#FFFFFF" fill-rule="evenodd" stroke="none" clip-path="url(#clip_1)" />
    <g id="Group" transform="translate(2.9998395 5.5)" clip-path="url(#clip_1)">
      <path d="M10.5002 1L14.5002 5L4.50016 14.5L1.00016 14L2.50016 9L10.5002 1Z" id="Line" fill="#FFFFFF" fill-rule="evenodd" stroke="none" />
      <path d="M11.2073 0.292893L15.2073 4.29289C15.4025 4.48815 15.5002 4.72386 15.5002 5C15.5002 5.27614 15.4025 5.51184 15.2073 5.70711C15.2042 5.71013 15.2012 5.71313 15.1981 5.71611C15.1951 5.71909 15.192 5.72206 15.1889 5.725L5.18891 15.225C5.07808 15.3303 4.94984 15.4062 4.8042 15.4527C4.65857 15.4991 4.51008 15.5116 4.35874 15.4899L0.858739 14.9899C0.727464 14.9712 0.604773 14.928 0.490667 14.8605C0.376561 14.7929 0.279725 14.7061 0.20016 14.6C0.120595 14.4939 0.0643576 14.3766 0.0314468 14.2482C-0.00146401 14.1197 -0.00854266 13.9899 0.010211 13.8586C0.0137377 13.8339 0.0181819 13.8094 0.0235432 13.785C0.0289046 13.7607 0.0351683 13.7365 0.0423343 13.7127L1.54233 8.71265C1.56611 8.6334 1.59921 8.55825 1.64164 8.48721C1.68407 8.41618 1.73454 8.3514 1.79305 8.29289L9.79305 0.292893C9.88682 0.199125 9.99496 0.126867 10.1175 0.0761204C10.24 0.0253735 10.3676 0 10.5002 0C10.6328 0 10.7603 0.0253735 10.8828 0.0761204C11.0054 0.126867 11.1135 0.199125 11.2073 0.292893L11.2073 0.292893ZM3.38554 9.52883L10.5002 2.41421L13.0676 4.98164L4.16237 13.4416L2.29188 13.1744L3.38554 9.52883L3.38554 9.52883Z" id="Vector" fill="#FFFFFF" fill-rule="evenodd" stroke="none" />
    </g>
  </g>
</svg>