<?xml version="1.0" encoding="utf-8"?>
<svg width="24px" height="24px" viewBox="0 0 24 24" version="1.1" xmlns:xlink="http://www.w3.org/1999/xlink" xmlns="http://www.w3.org/2000/svg">
  <defs>
    <path d="M24 0L24 0L24 24L0 24L0 0L24 0Z" id="path_1" />
    <clipPath id="clip_1">
      <use xlink:href="#path_1" clip-rule="evenodd" fill-rule="evenodd" />
    </clipPath>
  </defs>
  <g id="tick-red">
    <path d="M24 0L24 0L24 24L0 24L0 0L24 0Z" id="tick-red" fill="none" stroke="none" />
    <path d="M0 0L24 0L24 24L0 24L0 0Z" id="Shape" fill="none" stroke="none" clip-path="url(#clip_1)" />
    <path d="M12.01 2.011C12.7878 2.01105 13.5389 2.29437 14.123 2.808L14.277 2.953L14.975 3.651C15.1666 3.84131 15.4167 3.96145 15.685 3.992L15.82 4L16.82 4C18.5167 3.99991 19.9185 5.32407 20.015 7.018L20.02 7.2L20.02 8.2C20.02 8.47 20.112 8.733 20.278 8.943L20.368 9.043L21.065 9.741C22.2642 10.9334 22.3286 12.8529 21.212 14.123L21.067 14.277L20.369 14.975C20.1787 15.1666 20.0585 15.4167 20.028 15.685L20.02 15.82L20.02 16.82C20.0206 18.5158 18.6968 19.918 17.0029 20.0149L16.8209 20.0199L15.8209 20.0199C15.5513 20.02 15.2896 20.1109 15.0779 20.2779L14.9779 20.3679L14.2799 21.0649C13.0876 22.2641 11.168 22.3285 9.89792 21.2119L9.74392 21.0669L9.04592 20.3689C8.85436 20.1786 8.60421 20.0585 8.33592 20.0279L8.20092 20.0199L7.20092 20.0199C5.50424 20.02 4.10242 18.6959 4.00592 17.0019L4.00092 16.82L4.00092 15.82C4.00092 15.5507 3.91012 15.289 3.74317 15.0773L3.65317 14.9773L2.95617 14.2793C1.75701 13.0869 1.69261 11.1673 2.80917 9.89726L2.95417 9.74326L3.65217 9.04526C3.84248 8.8537 3.96262 8.60355 3.99317 8.33526L4.00117 8.20026L4.00117 7.20026L4.00617 7.01826C4.09861 5.39406 5.39496 4.0977 7.01917 4.00526L7.20117 4.00026L8.20116 4.00026C8.47078 4.00017 8.73251 3.90929 8.94416 3.74226L9.04416 3.65226L9.74216 2.95526C10.3427 2.35114 11.1593 2.01138 12.0112 2.01126L12.01 2.011ZM15.707 9.293C15.3165 8.90262 14.6835 8.90262 14.293 9.293L11 12.585L9.707 11.293L9.613 11.21C9.19587 10.8875 8.59998 10.9442 8.25125 11.3397C7.90252 11.7352 7.92079 12.3335 8.293 12.707L10.293 14.707L10.387 14.79C10.7851 15.0988 11.3507 15.0632 11.707 14.707L15.707 10.707L15.79 10.613C16.0988 10.2149 16.0632 9.64927 15.707 9.293L15.707 9.293Z" id="Shape" fill="#CE1616" fill-rule="evenodd" stroke="none" clip-path="url(#clip_1)" />
  </g>
</svg>